<?xml version="1.0" encoding="utf-8"?>
<!-- Generator: Adobe Illustrator 25.0.0, SVG Export Plug-In . SVG Version: 6.00 Build 0)  -->
<svg version="1.1" id="Layer_1" xmlns="http://www.w3.org/2000/svg" xmlns:xlink="http://www.w3.org/1999/xlink" x="0px" y="0px"
	 viewBox="0 0 512 512" style="enable-background:new 0 0 512 512;" xml:space="preserve">
<style type="text/css">
	.st0{display:none;}
	.st1{display:inline;}
	.st2{fill:#39B54A;}
</style>
<g id="Layer_5" class="st0">
	<rect class="st1" width="2048" height="512"/>
</g>
<g id="Layer_4">
	<path class="st2" d="M390.4,291.5c-2.5,10.7-11.6,19.1-21.6,18.8c-5.4-0.2-10.1-2.8-13.2-6.9c1.4,0.5,3,0.7,4.5,0.6
		c8-0.2,14.9-7.4,16.3-16.1c1.4-8.7-2.9-17.3-10.5-19.6c-0.9-0.3-1.7-0.4-2.6-0.5c4.8-2.9,10.5-3.6,15.6-1.7
		C388.2,269.6,392.9,280.7,390.4,291.5z"/>
	<path class="st2" d="M279.6,289.9c-2.7,11.9-12.9,21.3-24.1,20.9c-6.7-0.2-12.5-3.9-15.9-9.5c2.4,1.8,5.4,2.8,8.5,2.6
		c8-0.2,14.9-7.4,16.3-16.1c1.4-8.7-2.9-17.3-10.4-19.6c-4-1.2-8.2-0.5-11.8,1.7c6.2-8.1,16-11.5,24.7-8.3
		C277.1,265.6,282.3,278,279.6,289.9z"/>
	<path d="M348,276.3c-0.9,2-1.6,4.2-2.1,6.4c-0.5,2-0.8,4-0.9,5.9c-0.1-1.5,0-3.1,0.3-4.8C345.8,281,346.8,278.5,348,276.3z"/>
</g>
<g id="Layer_3">
	<g id="XMLID_1_">
		<g>
			<g>
				<path class="st2" d="M440.2,227l16.8-91.2l-254.6-7.7l-30.8,251.3C294,389.9,370.5,378,414.6,366l4.6-25.2L298,344.2L318.8,227
					h67.6c-14-7.8-35.8-22.2-44-33c-14.4-19-5.2-33.4,8-25.3c14.5,8.9,47.6,48.3,59.7,52.5c3.6,1.6,4.9,3.8,4.4,5.8L440.2,227
					L440.2,227z M285.5,291.5c-3.5,15.2-16.5,27.2-30.8,26.7c-9-0.3-16.7-5.4-21-13.3c-3.6-6.6-5-15-2.9-24.2
					c1.3-5.7,3.7-10.7,6.9-14.7c7.9-10.2,20.4-14.6,31.4-10.5C282.4,260.4,289,276.2,285.5,291.5z M288.8,234.2
					C271,228,227,208,227,208c-11-5-14-17,2.8-16.7c0,0,69.2,8.9,76.2,22.7C313,227.8,306.5,240.4,288.8,234.2z"/>
			</g>
			<g>
				<path class="st2" d="M327.2,237L310,333.8l101.1-3.1l10.2-0.3l18.4-0.3L457,237H327.2z M396.4,292.6
					c-2.5,10.9-10.2,19.9-19.7,23.3c-2.8,1-5.7,1.5-8.7,1.4c-13.7-0.5-23.9-12.9-22.9-28.7c0.1-1.9,0.4-3.9,0.9-5.9
					c0.5-2.3,1.2-4.4,2.1-6.4c6.1-14,20-21.2,32.3-17.2c0.3,0.1,0.6,0.2,1,0.3C393.6,263.9,399.7,278.6,396.4,292.6z"/>
			</g>
			<g>
				<path class="st2" d="M412.4,377l-14.5,78.5l-238.2,27.8l10.7-93.8C290.2,399.6,367.4,388.7,412.4,377z"/>
			</g>
			<g>
				<polygon class="st2" points="192.6,125.8 162.3,373.3 41,253 66,56.9 				"/>
			</g>
			<g>
				<path class="st2" d="M160.8,385.9l-10.4,90.6l-49.5-62.6c-11.6-14.3-19.1-41.3-11.1-65.3c2.6-7.9,6.3-12.9,10.6-14.6
					c3.7-1.5,7.2-0.2,8.4,0.3L160.8,385.9z"/>
			</g>
		</g>
		<g>
			<g>
				<g id="XMLID_2_">
					<g>
						<polygon class="st2" points="206.8,82.5 195.2,115.8 70.7,48 81.1,38.7 						"/>
						<polygon class="st2" points="312.2,43.8 311.3,46.7 286.8,46.7 244.4,41.4 						"/>
						<polygon class="st2" points="279.8,55.9 278.4,60 249.8,60 182.3,43.8 						"/>
						<polygon class="st2" points="242.8,68.6 240.9,74.2 241.1,74.2 241,74.4 210,74 114,39.5 						"/>
						<polygon class="st2" points="237.7,84.4 226.4,118.9 205,118.2 216.7,84.4 						"/>
						<polygon class="st2" points="470.6,89.3 457.4,125.9 440.1,125.5 452.9,88.3 						"/>
						<polygon class="st2" points="449.1,71.5 445.7,81.3 430.7,125.2 413.3,124.8 430.4,70.3 						"/>
						<polygon class="st2" points="424,57.4 422,63.5 402.9,124.4 387.2,123.9 407.9,56.8 						"/>
						<polygon class="st2" points="401.2,44.8 399.5,50.2 376.8,123.6 355.2,122.9 380.2,44 						"/>
						<polygon class="st2" points="371.7,37.8 345.2,121.2 345.1,121.8 325.9,121.8 353.6,37.1 						"/>
						<polygon class="st2" points="340.8,44 315.4,121.7 298.1,121.1 318.4,57.4 322.6,44 						"/>
						<polygon class="st2" points="308.1,56.7 287.8,120.8 268.6,120.2 286.7,66.7 290.1,56.7 						"/>
						<polygon class="st2" points="275,70 258.1,119.9 236.8,119.2 253,70 						"/>
						<polygon class="st2" points="315.4,121.7 315.4,121.7 298.1,121.1 						"/>
					</g>
				</g>
			</g>
		</g>
	</g>
</g>
</svg>
