<?xml version="1.0" encoding="utf-8"?>
<!-- Generator: Adobe Illustrator 25.0.0, SVG Export Plug-In . SVG Version: 6.00 Build 0)  -->
<svg version="1.1" id="Layer_2_1_" xmlns="http://www.w3.org/2000/svg" xmlns:xlink="http://www.w3.org/1999/xlink" x="0px" y="0px"
	 viewBox="0 0 512 512" style="enable-background:new 0 0 512 512;" xml:space="preserve">
<style type="text/css">
	.st0{fill:#999999;stroke:#808080;stroke-width:0.5;stroke-miterlimit:10;}
	.st1{fill:#333333;stroke:#1A1A1A;stroke-width:0.5;stroke-miterlimit:10;}
	.st2{fill:#E6E6E6;stroke:#4D4D4D;stroke-width:0.5;stroke-miterlimit:10;}
	.st3{fill:#333333;stroke:#000000;stroke-width:0.5;stroke-miterlimit:10;}
	.st4{fill:#E6E6E6;}
	.st5{fill:#4D4D4D;}
	.st6{fill:#333333;}
	.st7{fill:url(#SVGID_1_);}
	.st8{fill:#333333;stroke:#4D4D4D;stroke-width:0.5;stroke-miterlimit:10;}
	.st9{fill:#FFFFFF;}
</style>
<path class="st0" d="M300.78,378.5H86.65c-9.25,0-16.75-7.49-16.75-16.75V152.75c0-9.25,7.49-16.75,16.75-16.75h214.13
	c9.25,0,16.75,7.49,16.75,16.75v209.01C317.53,371.01,310.03,378.5,300.78,378.5z"/>
<rect x="77.82" y="222.11" class="st1" width="14.89" height="131.26"/>
<rect x="295.65" y="220.25" class="st1" width="14.89" height="130.33"/>
<rect x="140.19" y="356.16" class="st1" width="53.99" height="13.96"/>
<rect x="197.9" y="356.16" class="st1" width="53.99" height="13.96"/>
<rect x="151.36" y="298.44" class="st1" width="85.64" height="14.89"/>
<rect x="77.82" y="183.01" class="st1" width="20.48" height="14.89"/>
<rect x="77.82" y="202.56" class="st1" width="14.89" height="14.89"/>
<rect x="186.73" y="158.81" class="st1" width="23.27" height="9.31"/>
<rect x="186.73" y="143.91" class="st1" width="23.27" height="9.31"/>
<rect x="218.38" y="143.91" class="st2" width="27" height="30.72"/>
<rect x="260.28" y="143.91" class="st3" width="15.83" height="33.51"/>
<path d="M427.39,331.95h-57.75c-9.5,0-17.2-7.7-17.2-17.2V203.94c0-9.5,7.7-17.2,17.2-17.2h57.75c9.5,0,17.2,7.7,17.2,17.2v110.81
	C444.59,324.26,436.9,331.95,427.39,331.95z"/>
<rect x="388.74" y="183.01" class="st4" width="28.86" height="37.24"/>
<rect x="368.26" y="311.48" class="st4" width="24.2" height="24.2"/>
<rect x="433.42" y="220.25" class="st5" width="11.17" height="94.95"/>
<rect x="352.43" y="220.25" class="st5" width="11.17" height="94.95"/>
<rect x="388.74" y="252.83" class="st6" width="25.13" height="25.13"/>
<rect x="382.22" y="287.27" class="st6" width="25.13" height="18.62"/>
<linearGradient id="SVGID_1_" gradientUnits="userSpaceOnUse" x1="360.8129" y1="315.4914" x2="374.7764" y2="315.4914" gradientTransform="matrix(1 0 0 -1 0 512)">
	<stop  offset="0" style="stop-color:#333333"/>
	<stop  offset="0.1707" style="stop-color:#404040"/>
	<stop  offset="0.4824" style="stop-color:#616161"/>
	<stop  offset="0.5279" style="stop-color:#666666"/>
	<stop  offset="1" style="stop-color:#333333"/>
</linearGradient>
<rect x="360.81" y="183.01" class="st7" width="13.96" height="27"/>
<polygon class="st8" points="243.52,153.22 243.52,169.05 237,169.05 237,171.84 226.76,171.84 226.76,169.05 220.25,169.05 
	220.25,153.22 "/>
<path class="st9" d="M394.67,120.56c-3.87-3.9-7.91-7.64-12.1-11.2C349.27,81.06,306.13,64,259,64
	c-52.96,0-100.89,21.55-135.48,56.37l-7.81-7.76C152.31,75.8,202.99,53,259,53c37.47,0,72.56,10.2,102.64,27.98L373,62
	c7.54,12.56,12.97,27.28,16.51,38.82C393.02,112.25,394.67,120.56,394.67,120.56z"/>
<path class="st9" d="M121.71,394c3.87,3.9,7.91,7.64,12.1,11.2c33.3,28.3,76.44,45.36,123.57,45.36
	c52.96,0,100.89-21.55,135.48-56.37l7.81,7.76c-36.6,36.81-87.28,59.61-143.29,59.61c-37.47,0-72.56-10.2-102.64-27.98l-11.36,18.98
	c-7.54-12.56-12.97-27.28-16.51-38.82C123.36,402.31,121.71,394,121.71,394z"/>
</svg>
