<?xml version="1.0" encoding="utf-8"?>
<!-- Generator: Adobe Illustrator 25.0.0, SVG Export Plug-In . SVG Version: 6.00 Build 0)  -->
<svg version="1.1" xmlns="http://www.w3.org/2000/svg" xmlns:xlink="http://www.w3.org/1999/xlink" x="0px" y="0px"
	 viewBox="0 0 512 512" style="enable-background:new 0 0 512 512;" xml:space="preserve">
<style type="text/css">
	.st0{fill:#FFFFFF;}
</style>
<g id="Layer_3">
	<g>
		<path class="st0" d="M252.5,444.12c3.89-0.42,7.25-1.54,9.97-3.42C261.13,441.24,257.66,442.6,252.5,444.12z M75.93,267.54
			c1.52-5.15,2.88-8.63,3.42-9.97C77.47,260.3,76.34,263.65,75.93,267.54z"/>
	</g>
	<g>
		<path class="st0" d="M205.11,314.93c-50.67-50.67-106.13-77.36-123.87-59.62c-0.56,0.56-1.08,1.16-1.56,1.8
			c-0.11,0.15-0.22,0.3-0.32,0.45c0,0,0,0-0.01,0.01c-0.55,1.35-1.9,4.82-3.42,9.97c-7.3,24.71-18.57,88.05,34.98,141.6
			s116.89,42.28,141.6,34.98c5.15-1.52,8.63-2.88,9.97-3.42c0.01-0.01,0.01-0.01,0.01-0.01c0.15-0.11,0.3-0.22,0.45-0.33
			c0.64-0.48,1.24-0.99,1.8-1.55C282.48,421.06,255.78,365.61,205.11,314.93z M196.22,323.83c39.91,39.91,62.06,82.48,49.46,95.08
			c-12.6,12.6-55.17-9.55-95.08-49.46s-62.06-82.48-49.46-95.08C113.74,261.77,156.3,283.92,196.22,323.83z"/>
	</g>
	<g>
		<path class="st0" d="M188.01,383.8c-1.15,1.15-2.39,2.17-3.72,3.05c-8.59-6.06-18.22-14.22-27.81-23.81
			c-9.13-9.13-16.96-18.3-22.93-26.57c0.92-1.4,1.98-2.72,3.19-3.93c6.7-6.7,16.49-8.84,26.3-6.73c7.18,1.54,14.36,5.36,20.34,11.34
			c6.06,6.06,9.9,13.36,11.4,20.63C196.82,367.5,194.65,377.17,188.01,383.8z"/>
	</g>
	<g>
		<path class="st0" d="M79.68,257.12c-0.11,0.15-0.22,0.3-0.32,0.45c0.17-0.42,0.26-0.63,0.26-0.63L79.68,257.12z"/>
	</g>
	<g>
		<path class="st0" d="M263.11,440.43c0,0-0.22,0.09-0.63,0.26c0.15-0.11,0.3-0.22,0.45-0.33L263.11,440.43z"/>
	</g>
	<g>
		<path class="st0" d="M61.93,343.31c0,0,6.76,42.45,39.56,75.25s75.24,39.54,75.24,39.54s-68.4,24.35-103.51-10.76
			S61.93,343.31,61.93,343.31z"/>
	</g>
	<g>
		<path class="st0" d="M123.73,47.22h9.62c1.17,0,2.28,0.49,3.33,1.48c1.05,0.99,1.57,2.19,1.57,3.59c0,0.53-0.19,0.98-0.56,1.34
			c-0.37,0.37-0.79,0.55-1.24,0.55c-0.63,0-1.06-0.14-1.3-0.43s-0.46-0.82-0.67-1.59c-0.21-0.78-0.69-1.17-1.42-1.17h-9.14
			c-0.44,0-0.66,0.14-0.66,0.43c-0.01,0.18,0.08,0.39,0.27,0.62l13.73,17.51c0.66,0.85,0.99,1.76,0.99,2.72c0,1.1-0.4,2.07-1.2,2.9
			s-1.69,1.25-2.67,1.25h-9.96c-1.32,0-2.47-0.5-3.44-1.51c-0.98-1-1.46-2.11-1.46-3.31c0-1.38,0.64-2.07,1.93-2.07
			c0.5,0,0.92,0.18,1.28,0.54c0.35,0.36,0.53,0.78,0.53,1.26c0,0.4,0.14,0.73,0.41,0.99c0.27,0.26,0.61,0.4,1.02,0.4h9.19
			c0.4,0,0.59-0.16,0.59-0.47c0.01-0.15-0.08-0.34-0.27-0.58L120.5,54.19c-0.65-0.83-0.97-1.74-0.97-2.73
			c0-1.14,0.41-2.14,1.23-2.98C121.58,47.64,122.57,47.22,123.73,47.22z"/>
		<path class="st0" d="M146.67,74.59V49.07c0-0.5,0.18-0.93,0.54-1.3c0.36-0.37,0.79-0.55,1.31-0.55c0.5,0,0.93,0.18,1.3,0.55
			s0.55,0.8,0.55,1.3v10.88h11.25V49.07c0-0.5,0.18-0.93,0.54-1.3c0.36-0.37,0.79-0.55,1.31-0.55c0.51,0,0.95,0.18,1.31,0.55
			c0.36,0.37,0.54,0.81,0.54,1.34v25.48c0,0.5-0.19,0.93-0.56,1.3c-0.37,0.37-0.8,0.55-1.29,0.55c-0.53,0-0.97-0.18-1.32-0.54
			c-0.35-0.36-0.53-0.79-0.53-1.31V63.64h-11.21v10.95c0,0.5-0.19,0.93-0.56,1.3s-0.82,0.55-1.33,0.55c-0.5,0-0.93-0.18-1.3-0.54
			C146.86,75.54,146.67,75.1,146.67,74.59z"/>
		<path class="st0" d="M174.06,73.86l7.44-25.27c0.3-0.92,0.92-1.37,1.87-1.37c0.92,0,1.5,0.39,1.73,1.16l7.36,25.65
			c0.06,0.19,0.09,0.37,0.09,0.55c0,0.51-0.18,0.95-0.53,1.31c-0.35,0.36-0.75,0.54-1.21,0.54c-0.97,0-1.58-0.45-1.85-1.34
			l-1.46-5.01h-8.46l-1.61,5.37c-0.04,0.23-0.23,0.46-0.55,0.67s-0.68,0.32-1.06,0.32c-0.54,0-0.99-0.18-1.35-0.55
			c-0.35-0.37-0.53-0.81-0.53-1.34C173.95,74.33,173.99,74.1,174.06,73.86z M183.34,55.77l-3.17,10.57h6.25L183.34,55.77z"/>
		<path class="st0" d="M201.15,76.44V49.07c0-0.5,0.18-0.93,0.55-1.3s0.8-0.55,1.3-0.55s0.93,0.18,1.3,0.55
			c0.37,0.37,0.55,0.8,0.55,1.3v23.67h13.06c0.51,0,0.96,0.18,1.33,0.54c0.37,0.36,0.56,0.79,0.56,1.31c0,0.51-0.19,0.95-0.56,1.31
			c-0.37,0.36-0.82,0.54-1.33,0.54H201.15z"/>
		<path class="st0" d="M228.34,76.44V49.07c0-0.5,0.18-0.93,0.55-1.3s0.8-0.55,1.3-0.55s0.93,0.18,1.3,0.55
			c0.37,0.37,0.55,0.8,0.55,1.3v23.67h13.06c0.51,0,0.96,0.18,1.33,0.54c0.37,0.36,0.56,0.79,0.56,1.31c0,0.51-0.19,0.95-0.56,1.31
			c-0.37,0.36-0.82,0.54-1.33,0.54H228.34z"/>
		<path class="st0" d="M293.89,58.65v12.29l1.08,1.8h1.54l1.12-1.85V49.11c0-0.51,0.19-0.96,0.56-1.33
			c0.37-0.37,0.82-0.56,1.33-0.56c0.5,0,0.93,0.18,1.3,0.55s0.55,0.8,0.55,1.3v22.42c0,0.28-0.15,0.67-0.46,1.17l-1.71,2.84
			c-0.35,0.63-0.89,0.95-1.6,0.95h-3.47c-1.1,0-1.8-0.5-2.11-1.49c-0.34,1-1.01,1.49-2.02,1.49h-3.25c-0.94,0-1.61-0.34-2.02-1.03
			l-1.58-2.66c-0.29-0.48-0.44-0.9-0.44-1.25V49.11c0-0.51,0.19-0.96,0.56-1.33c0.37-0.37,0.82-0.56,1.33-0.56
			c0.48,0,0.9,0.19,1.26,0.56s0.54,0.82,0.54,1.33v21.87l1.08,1.76h1.58l1.17-1.85V58.65c0-0.51,0.18-0.95,0.54-1.31
			c0.36-0.36,0.79-0.54,1.31-0.54s0.95,0.18,1.31,0.54C293.71,57.7,293.89,58.14,293.89,58.65z"/>
		<path class="st0" d="M326.66,50.96H313.6v8.99h5.63c0.5,0,0.93,0.18,1.3,0.55c0.37,0.37,0.55,0.8,0.55,1.3
			c0,0.53-0.18,0.97-0.54,1.34s-0.79,0.55-1.31,0.55h-5.63v9.06h13.1c0.5,0,0.93,0.18,1.3,0.54c0.37,0.36,0.55,0.79,0.55,1.31
			c0,0.51-0.19,0.95-0.56,1.31c-0.37,0.36-0.82,0.54-1.33,0.54h-16.75V47.22h16.75c0.51,0,0.96,0.19,1.33,0.56s0.56,0.82,0.56,1.33
			c0,0.5-0.19,0.93-0.56,1.3S327.17,50.96,326.66,50.96z"/>
		<path class="st0" d="M364.29,74.59V47.22h13.1c1.51,0,2.81,0.55,3.9,1.65c1.09,1.1,1.64,2.41,1.64,3.93v6.92
			c0,1.52-0.54,2.83-1.63,3.91s-2.39,1.63-3.91,1.63h-9.36v9.32c0,0.51-0.18,0.95-0.54,1.31c-0.36,0.36-0.79,0.54-1.31,0.54
			c-0.53,0-0.97-0.18-1.34-0.54C364.48,75.54,364.29,75.1,364.29,74.59z M368.03,61.58h9.36c0.5,0,0.93-0.18,1.3-0.54
			c0.37-0.36,0.55-0.79,0.55-1.31v-6.92c0-0.51-0.18-0.95-0.55-1.31c-0.37-0.36-0.8-0.54-1.3-0.54h-9.36V61.58z"/>
		<path class="st0" d="M391.49,76.44V49.07c0-0.5,0.18-0.93,0.55-1.3s0.8-0.55,1.3-0.55s0.93,0.18,1.3,0.55s0.55,0.8,0.55,1.3v23.67
			h13.06c0.51,0,0.96,0.18,1.33,0.54c0.37,0.36,0.56,0.79,0.56,1.31c0,0.51-0.19,0.95-0.56,1.31c-0.38,0.36-0.82,0.54-1.33,0.54
			H391.49z"/>
		<path class="st0" d="M418.79,73.86l7.44-25.27c0.29-0.92,0.92-1.37,1.87-1.37c0.92,0,1.5,0.39,1.73,1.16l7.36,25.65
			c0.06,0.19,0.09,0.37,0.09,0.55c0,0.51-0.18,0.95-0.53,1.31c-0.35,0.36-0.75,0.54-1.21,0.54c-0.97,0-1.58-0.45-1.85-1.34
			l-1.46-5.01h-8.46l-1.61,5.37c-0.04,0.23-0.23,0.46-0.55,0.67s-0.68,0.32-1.06,0.32c-0.54,0-0.99-0.18-1.35-0.55
			s-0.53-0.81-0.53-1.34C418.68,74.33,418.71,74.1,418.79,73.86z M428.06,55.77l-3.17,10.57h6.25L428.06,55.77z"/>
		<path class="st0" d="M457.08,62.42v12.17c0,0.51-0.18,0.95-0.55,1.31c-0.37,0.36-0.8,0.54-1.3,0.54c-0.53,0-0.97-0.18-1.34-0.54
			c-0.37-0.36-0.55-0.79-0.55-1.31V62.43l-7.43-9.4v-3.91c0-0.53,0.18-0.97,0.54-1.34s0.79-0.55,1.31-0.55s0.96,0.19,1.33,0.56
			c0.37,0.38,0.56,0.82,0.56,1.34v2.54l5.54,7.12l5.63-7.11v-2.57c0-0.51,0.18-0.95,0.55-1.33c0.37-0.37,0.8-0.56,1.3-0.56
			c0.48,0,0.91,0.17,1.29,0.52c0.37,0.34,0.56,0.8,0.56,1.37v3.87L457.08,62.42z"/>
		<path class="st0" d="M282.83,127.89l7.44-25.27c0.3-0.92,0.92-1.37,1.87-1.37c0.92,0,1.5,0.39,1.73,1.16l7.36,25.65
			c0.06,0.19,0.09,0.37,0.09,0.55c0,0.51-0.18,0.95-0.53,1.31c-0.35,0.36-0.75,0.54-1.21,0.54c-0.97,0-1.58-0.45-1.85-1.34
			l-1.46-5.01h-8.46l-1.61,5.37c-0.04,0.23-0.23,0.46-0.55,0.67s-0.68,0.32-1.06,0.32c-0.54,0-0.99-0.18-1.35-0.55
			s-0.53-0.81-0.53-1.34C282.72,128.35,282.76,128.12,282.83,127.89z M292.11,109.79l-3.17,10.57h6.25L292.11,109.79z"/>
		<path class="st0" d="M347.81,101.24h6.13c0.51,0,0.95,0.18,1.31,0.54c0.36,0.36,0.54,0.79,0.54,1.31c0,0.54-0.2,0.99-0.58,1.35
			c-0.39,0.36-0.81,0.54-1.27,0.54h-5.86c-0.57-0.01-1.07,0.26-1.5,0.8l-5.18,6.67c-0.44,0.53-0.66,1.26-0.65,2.2v10.22
			c0,0.53,0.18,0.97,0.54,1.34c0.36,0.37,0.79,0.55,1.31,0.55h7.52c0.5,0,0.93-0.18,1.3-0.55c0.37-0.37,0.55-0.8,0.55-1.3v-4h-3.83
			c-0.53,0-0.97-0.18-1.32-0.54c-0.35-0.36-0.53-0.79-0.53-1.31c0-0.51,0.18-0.95,0.53-1.31s0.79-0.54,1.32-0.54h7.52v7.69
			c0,1.52-0.54,2.83-1.63,3.91s-2.39,1.63-3.91,1.63h-7.52c-1.54,0-2.85-0.54-3.95-1.63s-1.64-2.39-1.64-3.91V114.7
			c0-1.83,0.49-3.38,1.47-4.64l5.45-6.92c0.39-0.53,0.95-0.97,1.66-1.34C346.31,101.43,347.04,101.24,347.81,101.24z"/>
		<path class="st0" d="M364.4,127.89l7.44-25.27c0.3-0.92,0.92-1.37,1.87-1.37c0.92,0,1.5,0.39,1.73,1.16l7.36,25.65
			c0.06,0.19,0.09,0.37,0.09,0.55c0,0.51-0.18,0.95-0.53,1.31c-0.35,0.36-0.75,0.54-1.21,0.54c-0.97,0-1.58-0.45-1.85-1.34
			l-1.46-5.01h-8.46l-1.61,5.37c-0.04,0.23-0.23,0.46-0.55,0.67s-0.68,0.32-1.06,0.32c-0.54,0-0.99-0.18-1.35-0.55
			s-0.53-0.81-0.53-1.34C364.29,128.35,364.33,128.12,364.4,127.89z M373.68,109.79l-3.17,10.57h6.25L373.68,109.79z"/>
		<path class="st0" d="M398.92,112.72v-0.95l-3.83-5.45v22.29c0,0.51-0.18,0.95-0.54,1.31c-0.36,0.36-0.79,0.54-1.31,0.54
			s-0.95-0.18-1.31-0.55c-0.36-0.37-0.54-0.8-0.54-1.3v-27.37h4.78l4.54,6.62l4.69-6.62h4.68v27.37c0,0.51-0.19,0.95-0.56,1.31
			c-0.37,0.36-0.82,0.54-1.33,0.54c-0.5,0-0.93-0.18-1.3-0.55c-0.37-0.37-0.55-0.8-0.55-1.3v-22.2l-3.74,5.28v1.03
			c0,0.5-0.18,0.93-0.55,1.3c-0.37,0.37-0.8,0.55-1.3,0.55c-0.51,0-0.95-0.18-1.31-0.55C399.09,113.65,398.92,113.22,398.92,112.72z
			"/>
		<path class="st0" d="M435.43,104.98h-13.06v8.99H428c0.5,0,0.93,0.18,1.3,0.55c0.37,0.37,0.55,0.8,0.55,1.3
			c0,0.53-0.18,0.97-0.54,1.34c-0.36,0.37-0.79,0.55-1.31,0.55h-5.63v9.06h13.1c0.5,0,0.93,0.18,1.3,0.54
			c0.37,0.36,0.55,0.79,0.55,1.31c0,0.51-0.19,0.95-0.56,1.31c-0.38,0.36-0.82,0.54-1.33,0.54h-16.75v-29.21h16.75
			c0.51,0,0.96,0.19,1.33,0.56c0.37,0.37,0.56,0.82,0.56,1.33c0,0.5-0.19,0.93-0.56,1.3C436.38,104.8,435.94,104.98,435.43,104.98z"
			/>
		<path class="st0" d="M464.44,110.73l-10.66,9.21v2.28c0,0.5-0.18,0.93-0.55,1.29c-0.37,0.37-0.8,0.55-1.3,0.55
			c-0.51,0-0.95-0.18-1.31-0.55c-0.36-0.37-0.54-0.8-0.54-1.3v-3.06c0-0.66,0.19-1.16,0.57-1.49l10.55-9.11v-1.34l-1.85-1.68
			l-9.83,8.42c-0.44,0.38-0.89,0.57-1.36,0.57c-0.45,0-0.87-0.18-1.25-0.53c-0.38-0.35-0.57-0.81-0.57-1.36
			c0-0.6,0.16-1.04,0.48-1.32l11.35-9.64c0.34-0.29,0.75-0.43,1.23-0.43c0.45,0,0.83,0.12,1.12,0.36l3.77,3.31
			c0.42,0.32,0.64,0.79,0.64,1.39v3.17C464.95,110.03,464.78,110.45,464.44,110.73z M451.89,126.68c0.51,0,0.95,0.19,1.31,0.56
			c0.36,0.37,0.54,0.82,0.54,1.33c0,0.51-0.18,0.95-0.54,1.31c-0.36,0.36-0.79,0.54-1.31,0.54s-0.95-0.18-1.31-0.54
			c-0.36-0.36-0.54-0.79-0.54-1.31c0-0.51,0.18-0.96,0.54-1.33C450.94,126.86,451.38,126.68,451.89,126.68z"/>
	</g>
	<g>
		<polygon class="st0" points="315,164.85 223.04,240.63 264.76,248.3 211.8,307.32 300.52,236.37 257.95,230.41 		"/>
	</g>
</g>
<g id="Layer_2">
</g>
</svg>
