<?xml version="1.0" encoding="utf-8"?>
<!-- Generator: Adobe Illustrator 25.0.0, SVG Export Plug-In . SVG Version: 6.00 Build 0)  -->
<svg version="1.1" xmlns="http://www.w3.org/2000/svg" xmlns:xlink="http://www.w3.org/1999/xlink" x="0px" y="0px"
	 viewBox="0 0 512 512" style="enable-background:new 0 0 512 512;" xml:space="preserve">
<style type="text/css">
	.st0{fill:#FFFFFF;}
	.st1{fill:#00FF00;}
	.st2{fill:#0000FF;}
</style>
<g id="Layer_2">
	<path class="st0" d="M505,512H29.06c0,0-10.06-96.15,69.94-136.15s169-77,182-101c11.19-20.65-9.47-42.79-54.32-62.58h-0.01
		c0,0-0.01,0-0.02-0.01C224.78,211.68,80.39,166.73,141,125C202,83,340,47,362,0h11.28c0,0,3.72,6-32.28,36
		c-42.19,35.16-229,99-157,124c73.68,25.58,185,63,206,106.85c22,32,5,111,38,152S505,512,505,512z"/>
</g>
<g id="Layer_3">
	<path class="st1" d="M300.83,211.5c47.5,18.5,69.88,39.32,80.31,53.58c5.8,7.93,8.6,14.73,9.94,19.42H280.59
		c6.44-8.56,8.89-17.49,7.29-26.69c-2.69-15.45-16.95-30.32-42.38-44.18c-1.35-0.73-2.69-1.45-4.02-2.13H300.83 M302.14,204.5
		h-96.65c0,0,119.36,39,58.19,87h135.66C399.33,291.5,400.77,242.5,302.14,204.5L302.14,204.5z"/>
	<g>
		<polygon class="st1" points="335,247.5 335,251.5 323,251.5 323,264 319,264 319,251.5 307,251.5 307,247.5 319,247.5 319,235 
			323,235 323,247.5 		"/>
	</g>
	<g>
		<rect x="1" y="203.5" class="st2" width="511" height="2"/>
	</g>
	<g>
		<rect x="1" y="290.5" class="st2" width="511" height="2"/>
	</g>
</g>
<g id="Layer_4">
	<g>
		<path class="st1" d="M101.14,67.43v-7.5h28v7.56c0,0.77-0.28,1.43-0.83,1.96c-0.55,0.54-1.2,0.81-1.95,0.81
			c-0.77,0-1.44-0.28-2-0.83c-0.56-0.55-0.84-1.2-0.84-1.95v-2.01h-5.61v35.5c0,0.77-0.28,1.43-0.83,1.96
			c-0.55,0.54-1.2,0.81-1.95,0.81c-0.79,0-1.46-0.27-2.01-0.81c-0.55-0.54-0.83-1.19-0.83-1.96v-35.5h-5.61v1.95
			c0,0.77-0.27,1.42-0.81,1.96c-0.54,0.54-1.19,0.81-1.96,0.81c-0.77,0-1.43-0.27-1.96-0.81C101.41,68.86,101.14,68.2,101.14,67.43z
			"/>
		<path class="st1" d="M141.99,95.43V62.71c0-0.77,0.28-1.44,0.83-2c0.55-0.56,1.2-0.84,1.95-0.84c0.75,0,1.4,0.28,1.95,0.83
			c0.55,0.55,0.83,1.2,0.83,1.95v32.79c0,0.73,0.27,1.36,0.83,1.9c0.55,0.54,1.2,0.81,1.95,0.81h11.36c0.77,0,1.42-0.26,1.96-0.79
			c0.54-0.53,0.81-1.17,0.81-1.92V62.71c0-0.79,0.27-1.46,0.81-2.01c0.54-0.55,1.19-0.83,1.96-0.83c0.77,0,1.43,0.28,1.96,0.83
			c0.54,0.55,0.81,1.22,0.81,2.01v32.66c0,2.29-0.82,4.26-2.46,5.91s-3.59,2.48-5.86,2.48h-11.36c-2.29,0-4.25-0.81-5.88-2.44
			C142.8,99.68,141.99,97.72,141.99,95.43z"/>
		<path class="st1" d="M182.97,100.98V59.87h19.61c2.27,0,4.22,0.83,5.86,2.48c1.64,1.65,2.46,3.62,2.46,5.91v3.17
			c0,2.31-0.81,4.29-2.44,5.93c-1.63,1.64-3.59,2.46-5.88,2.46h-3.53l11.33,19.48c0.35,0.57,0.53,1.15,0.53,1.72
			c0,0.75-0.29,1.39-0.86,1.93c-0.57,0.54-1.23,0.81-1.95,0.81c-1.1,0.01-1.94-0.49-2.51-1.48l-12.99-22.46h-4.01v21.17
			c0,0.77-0.28,1.43-0.84,1.96s-1.23,0.81-2,0.81c-0.77,0-1.43-0.27-1.96-0.81C183.24,102.41,182.97,101.75,182.97,100.98z
			 M188.51,74.27h14.07c0.77,0,1.43-0.27,1.96-0.81c0.54-0.54,0.81-1.19,0.81-1.96v-3.24c0-0.77-0.27-1.42-0.81-1.96
			c-0.54-0.54-1.19-0.81-1.96-0.81h-14.07V74.27z"/>
		<path class="st1" d="M251.68,62.71v41.04h-7.44l-14.95-34.08v31.3c0,0.77-0.27,1.43-0.81,1.96c-0.54,0.54-1.19,0.81-1.96,0.81
			s-1.43-0.27-1.96-0.81c-0.54-0.54-0.81-1.19-0.81-1.96V59.87h7.33l14.99,34.01V62.71c0-0.77,0.28-1.44,0.84-2
			c0.56-0.56,1.23-0.84,2-0.84c0.77,0,1.43,0.28,1.96,0.83C251.41,61.25,251.68,61.92,251.68,62.71z"/>
		<path class="st1" d="M275.75,67.1h5.55c0.79,0,1.46,0.3,2.01,0.89c0.55,0.59,0.83,1.22,0.83,1.88v4.79c0,0.75-0.28,1.4-0.84,1.95
			c-0.56,0.55-1.21,0.83-1.93,0.83h-5.68c-0.77,0-1.41-0.26-1.93-0.79c-0.52-0.53-0.78-1.19-0.78-1.98v-4.79
			c0-0.75,0.27-1.4,0.81-1.95C274.33,67.38,274.98,67.1,275.75,67.1z M275.75,86.25h5.55c0.77,0,1.44,0.27,2,0.81
			c0.56,0.54,0.84,1.19,0.84,1.96v4.72c0,0.77-0.28,1.44-0.83,2c-0.55,0.56-1.2,0.84-1.95,0.84h-5.68c-0.77,0-1.41-0.27-1.93-0.83
			c-0.52-0.55-0.78-1.2-0.78-1.95v-4.79c0-0.79,0.27-1.45,0.81-1.98C274.33,86.52,274.98,86.25,275.75,86.25z"/>
		<path class="st1" d="M316.6,78.92V70.4c0-0.75,0.28-1.39,0.83-1.91c0.55-0.53,1.22-0.79,2.01-0.79c0.75,0,1.39,0.26,1.92,0.79
			c0.53,0.53,0.79,1.17,0.79,1.91v8.52h8.52c0.77,0,1.44,0.27,2,0.81c0.56,0.54,0.84,1.19,0.84,1.96s-0.28,1.42-0.84,1.96
			c-0.56,0.54-1.23,0.81-2,0.81h-8.45v8.52c0,0.79-0.28,1.46-0.84,2.01c-0.56,0.55-1.23,0.83-2,0.83s-1.43-0.28-1.96-0.83
			c-0.54-0.55-0.81-1.22-0.81-2.01v-8.52h-8.52c-0.75,0-1.4-0.27-1.95-0.81c-0.55-0.54-0.83-1.19-0.83-1.96
			c0-0.75,0.28-1.4,0.83-1.95c0.55-0.55,1.2-0.83,1.95-0.83H316.6z"/>
		<path class="st1" d="M348.86,98.14h8.52V65.42h-8.39c-0.77,0-1.43-0.27-1.96-0.81c-0.54-0.54-0.81-1.19-0.81-1.96
			c0-0.77,0.27-1.42,0.81-1.96c0.54-0.54,1.19-0.81,1.96-0.81h13.93v38.27h5.55V86.58c0-0.75,0.27-1.4,0.81-1.95
			c0.54-0.55,1.19-0.83,1.96-0.83c0.77,0,1.42,0.27,1.96,0.81c0.54,0.54,0.81,1.19,0.81,1.96v14.33c0,0.77-0.27,1.43-0.81,1.96
			c-0.54,0.54-1.2,0.81-1.96,0.81h-22.39c-0.77,0-1.43-0.28-1.96-0.84c-0.54-0.56-0.81-1.23-0.81-2c0-0.75,0.27-1.39,0.81-1.91
			C347.44,98.4,348.09,98.14,348.86,98.14z"/>
		<path class="st1" d="M397.27,98.14h12.85V84.54h-16.78V59.87h19.55c0.75,0,1.4,0.28,1.95,0.83c0.55,0.55,0.82,1.2,0.82,1.95
			c0,0.77-0.27,1.43-0.81,1.96c-0.54,0.54-1.2,0.81-1.96,0.81h-13.94v13.57h11.16c1.5,0,2.79,0.55,3.9,1.65
			c1.1,1.1,1.65,2.4,1.65,3.9v13.61c0,1.52-0.54,2.82-1.63,3.91c-1.09,1.09-2.39,1.63-3.91,1.63h-12.85c-1.14,0-2.37-0.27-3.66-0.83
			l-4.2-1.75c-1.12-0.46-1.68-1.34-1.68-2.64c0-0.77,0.25-1.43,0.76-1.96s1.12-0.81,1.85-0.81c0.55,0,1.19,0.16,1.91,0.5l3.67,1.55
			C396.36,98.01,396.81,98.14,397.27,98.14z"/>
	</g>
</g>
</svg>
